# xmcd
#
# Track frame offsets: 
#        150
#        17273
#        35588
#        53493
#        68719
#        88157
#        112398
#        129751
#        145572
#        168980
#        190295
#        205980
#
# Disc length: 3103 seconds
#
# Revision: 0
# Processed by: cddbd v1.5.2PL0 Copyright (c) Steve Scherf et al.
# Submitted via: ExactAudioCopy v0.95b4
#
DISCID=9e0c1d0c
DTITLE=Muskellunge Bluegrass - Pickin' in the Pines
DYEAR=2008
DGENRE=Bluegrass
TTITLE0=Sittin' on the Front Porch
TTITLE1=Wild Bill Jones
TTITLE2=The Road Home
TTITLE3=Stingray
TTITLE4=Lighthouse Light
TTITLE5=River Will Rise on Sunday
TTITLE6=Mean Old Wind
TTITLE7=Bye Bye Baby Boy
TTITLE8=Endless Highway
TTITLE9=World of Trouble
TTITLE10=Jumpin' Cholla Backstep
TTITLE11=Donna Lee
EXTD=
EXTT0=
EXTT1=
EXTT2=
EXTT3=
EXTT4=
EXTT5=
EXTT6=
EXTT7=
EXTT8=
EXTT9=
EXTT10=
EXTT11=
PLAYORDER=
